<svg xmlns="http://www.w3.org/2000/svg" width="1600" height="500" version="1.0" viewBox="0 0 1200 375"><g fill="#fd5a5d"><path d="M160 2.5c-7.9 2-12.6 4.1-20.1 9.1-14.1 9.3-18.3 15.7-47.2 72.6C45.8 176.4 7.8 257.4 3.3 275c-10.7 41.7 12.6 82.9 54.2 96 9.9 3.1 26.4 3.8 37.4 1.6 23.7-4.8 43.1-16.3 67.6-39.8l11.2-10.7 9.9 9.7c28.5 27.9 52.6 40.5 80.5 41.9 14.9.7 23.8-1.1 37.4-7.7 11.8-5.8 19.5-11.6 26.7-20.4 11.6-14.1 17.7-30.3 18.5-49.6.8-18.8-.9-24-24.5-74.5-35.4-75.7-84.1-173.4-94.3-188.9-9.3-14.1-21.1-24-34.2-28.6-8-2.8-25.5-3.6-33.7-1.5zm32.2 26.3c8 3.9 15.1 11.3 20.9 21.6C219 61 262.9 148.7 277 178c30.2 63 43.2 91.7 45.6 101 2.5 9.3 2.2 24.6-.5 33-9.1 28.7-37.4 44.9-67.3 38.5-16.8-3.5-34-14.1-53.3-32.8l-12.7-12.2 9.7-13c41.6-55.6 49.8-103.6 22.9-133.4-6.4-7.1-15.2-12.8-25.4-16.7-6.9-2.5-8.7-2.8-21.5-2.8-11.2-.1-15.1.3-19.5 1.8-22 7.5-37.2 23.3-42.5 44.1-1.9 7.7-1.9 23.5.1 33.1 4.7 23.1 20.5 53.8 41.2 80.4l5.1 6.4-5.7 6.1c-19.6 20.8-39.3 34.1-57.4 38.7-10.8 2.7-26.3 2.2-35.3-1.2-8.2-3.1-18.6-10.1-23.3-15.8-16.5-20-18-42.1-4.7-71.6C62.8 194.2 133.7 52 142.7 40.6c8.7-11.2 18.6-15.8 33.3-15.4 8.5.3 10.3.7 16.2 3.6zm0 135.9c28.7 13.5 28.9 50.5.3 95.7-6.6 10.5-17.6 25.6-18.6 25.6s-14.6-18.8-19.8-27.2c-18.9-31.1-24.7-58.2-16.4-76 3.3-6.9 9.6-13.8 15.8-17 7.4-3.9 11.6-4.8 22-4.5 8.8.2 10.8.6 16.7 3.4zM603.2 71.1c-15.1 2.8-23.3 20-16.2 33.9 7.6 14.7 26.7 17.5 38.3 5.5 11-11.3 7.7-30.1-6.5-36.8-6.5-3.1-10-3.6-15.6-2.6zM748 175v104h15.3c18.3 0 19.7-.6 19.7-7.6v-4.5l4.8 3.9c9.5 8 19.1 11.2 33.1 11.2 12.4 0 20.4-2 32.1-7.7 7.7-3.8 11-6.2 17.5-12.8 13.4-13.3 20.2-29.1 21.2-49 1.8-34.9-17.3-63.7-49.2-74.2-6.9-2.3-9.8-2.6-21-2.7-11.4 0-13.7.2-19 2.3-6.1 2.4-15.4 8.3-16.8 10.7-2.4 4-2.7-.7-2.7-38.1V71h-35v104zm81-5.4c7.6 2.2 13 5.5 18.3 11.4 7 7.7 9.1 14.2 9.2 27.6 0 11.1 0 11.2-4 19-7 13.6-17.8 20.2-35.1 21.1-10.7.6-17-1-25-6.3-9.6-6.5-9.4-5.7-9.4-34.4v-25l4-4c4.4-4.4 14.2-9.7 20.4-11 5.1-1.1 14.4-.4 21.6 1.6zM1056 175v104h15.4c17.8 0 18.6-.3 18.6-7.6 0-2.4.3-4.4.8-4.4.4 0 1.8 1.2 3.2 2.7 4 4.2 11 8.2 18.3 10.5 9.9 3 26.9 2.3 38.2-1.6 26.8-9.2 45.9-33.5 48.3-61.7 2.1-24.7-4.7-44.7-20.8-61-12.6-12.7-28-19.6-46-20.6-15.1-.8-26.2 2.5-36.2 10.9l-4.8 3.9V71h-35v104zm74-6.9c13.8 2.2 25 10 30.7 21.7 2.6 5.3 2.8 6.5 2.8 18.2 0 11.4-.2 13-2.7 18.2-7.1 15.3-22.6 23.7-41.5 22.6-9.5-.5-17-3.7-23.7-9.8l-4.6-4.3v-52.4l4.4-4.1c5.2-4.8 10.6-7.7 17.9-9.7 6.4-1.7 8.5-1.8 16.7-.4zM482.1 136.1c-14.9 2.9-26.2 9-37.2 19.9-9.8 9.7-15.6 19.7-19 32.7-3 11-3 28.8 0 39.7 8.8 32.8 35.6 53.6 69.1 53.6 14.3 0 24.1-3.4 32.5-11.1l4.2-3.9.6 4.7c.8 7 1.6 7.3 19.4 7.3H567V139h-15.9c-15.4 0-16 .1-17.5 2.2-.9 1.2-1.6 3.8-1.6 5.6v3.4l-4.1-3.7c-5.1-4.5-14.5-9.1-21.8-10.5-6.3-1.2-17.7-1.1-24 .1zm35.1 35.1c3.1 1.4 7.7 4.5 10.2 6.8l4.6 4.3v53l-4.2 4c-8.3 7.9-20.9 11.6-32.9 9.8-15.7-2.5-26-9.5-32.1-21.9-3.2-6.4-3.3-7.2-3.3-18.2 0-13.7 2.1-20.1 9-27.7 8.3-9.3 18.9-13.4 33.5-13 7.8.2 10.5.8 15.2 2.9zM705.8 136.9c-6.7 2.2-13.5 6-18.3 10.3l-3.5 3v-3.9c0-6.8-1.3-7.3-19.3-7.3H649v140h35v-98.8l3.5-3.1c4.6-4 11.6-7.5 18.4-9.1 5.4-1.3 21.6-.9 25.4.5 1.6.7 1.7-.5 1.7-15.3 0-10.3-.4-16.3-1.1-16.7-.5-.4-5.4-.9-10.7-1.1-7.7-.3-10.9 0-15.4 1.5zM965.6 136.6c-7.2 1.7-14.8 5.5-20.3 10.1l-4.3 3.4v-3.6c0-7.4-.2-7.5-17.5-7.5H908v140h35v-98.8l4-3.4c7.4-6.4 14.4-9.1 24.6-9.6 14.6-.7 21.6 2.7 26.3 12.7l2.6 5.6.3 46.7.3 46.8h35l-.4-50.8c-.4-54.4-.4-54.7-5.8-65.9-3.3-7.1-13.3-16.4-22.1-20.7-12.7-6.3-29-8.2-42.2-5zM591 209v70h35V139h-35v70z"/></g></svg>